<?xml version="1.0" encoding="utf-8"?>
<!-- Generator: Adobe Illustrator 22.0.1, SVG Export Plug-In . SVG Version: 6.00 Build 0)  -->
<svg version="1.1" id="Layer_1" xmlns:serif="http://www.serif.com/"
	 xmlns="http://www.w3.org/2000/svg" xmlns:xlink="http://www.w3.org/1999/xlink" x="0px" y="0px" width="16px"
	 height="15px" viewBox="0 0 1070.5 1047.9" style="enable-background:new 0 0 1070.5 1047.9;" fill="red" xml:space="preserve">
<g>
	<path style="fill:#231F20;" d="M917.4,239.7L816.2,138.5l-46.1-45.9l-18.4-18.4L51.1,774.7l-10.9,69.2l171.7,171.7l69.2-10.9
		l700.5-700.5l-18.4-18.4L917.4,239.7z M241.1,952.8l-138-138l648.6-648.6l138,138L241.1,952.8z"/>
</g>
<g>
	<g>
		<path style="fill:#231F20;" d="M59.8,773.1c-0.8,1-1.9,1.8-3.2,2.5c-1.5,0.8-3.2,1.3-4.9,1.5c-0.4,0.3-0.7,0.6-1.1,0.7L8,1047.9
			l262.6-41.4c-0.2-1.4,0.1-2.9,1.3-4.2c2.7-3,5.9-5.4,9.3-7.7C207.5,920.7,133.6,846.9,59.8,773.1z M86.3,969.6
			c3.6-22.5,7.1-45,10.6-67.5l56.8,56.8L86.3,969.6z"/>
	</g>
	<g>
		<polygon style="fill:#231F20;" points="852.2,304.9 751,203.7 704.9,157.8 686.5,139.4 639.3,186.5 686.5,231.4 824.5,369.4 
			874.3,411.5 916.5,369.4 898.1,351 		"/>
	</g>
</g>
<g>
	<path style="fill:#231F20;" d="M936.5,349.7L706.4,119.5L799,26.9c16.4-16.4,38.2-25.5,61.5-25.6h0.1c23.3,0,45.2,9.1,61.7,25.6
		l106.8,106.8c34,34,34,89.4,0,123.4L936.5,349.7z M799.8,119.5l136.7,136.8l46-46c8.3-8.3,8.3-21.8,0-30L875.7,73.5
		c-4-4-9.3-6.2-15-6.2l0,0c-5.6,0-10.9,2.2-14.8,6.2L799.8,119.5z"/>
</g>
</svg>
